<?xml version="1.0" encoding="utf-8"?>
<!-- Generator: Adobe Illustrator 26.5.0, SVG Export Plug-In . SVG Version: 6.00 Build 0)  -->
<svg version="1.1" id="圖層_1" xmlns="http://www.w3.org/2000/svg" xmlns:xlink="http://www.w3.org/1999/xlink" x="0px" y="0px"
	 viewBox="0 0 12 12" style="enable-background:new 0 0 12 12;" xml:space="preserve">
<path d="M9.5,1.5c0.6,0,1,0.4,1,1v7c0,0.6-0.4,1-1,1h-7c-0.6,0-1-0.4-1-1v-7c0-0.6,0.4-1,1-1H9.5 M9.2,9.2V6.6C9.2,5.7,8.5,5,7.6,5
	c0,0,0,0,0,0C7.2,5,6.7,5.2,6.5,5.6V5.1H5.1v4.2h1.4V6.8c0-0.4,0.3-0.7,0.7-0.7c0.4,0,0.7,0.3,0.7,0.7v2.5H9.2 M3.4,4.3
	c0.5,0,0.8-0.4,0.8-0.8l0,0c0-0.5-0.4-0.8-0.8-0.8C3,2.6,2.6,3,2.6,3.4l0,0C2.6,3.9,3,4.3,3.4,4.3 M4.1,9.2V5.1H2.8v4.2H4.1z"/>
</svg>
