<?xml version="1.0" encoding="utf-8"?>
<!-- Generator: Adobe Illustrator 26.5.0, SVG Export Plug-In . SVG Version: 6.00 Build 0)  -->
<svg version="1.1" id="圖層_1" xmlns="http://www.w3.org/2000/svg" xmlns:xlink="http://www.w3.org/1999/xlink" x="0px" y="0px"
	 viewBox="0 0 12 12" style="enable-background:new 0 0 12 12;" xml:space="preserve">
<path d="M2.5,1.5h7c0.6,0,1,0.4,1,1v7c0,0.6-0.4,1-1,1h-7c-0.6,0-1-0.4-1-1v-7C1.5,1.9,1.9,1.5,2.5,1.5 M8.9,4.7
	C9.1,4.5,9.4,4.2,9.5,4C9.3,4.1,9.1,4.1,8.8,4.2C9,4,9.2,3.7,9.3,3.4C9.1,3.6,8.8,3.7,8.5,3.7C7.7,2.8,5.9,3.6,6.2,5
	C4.9,4.9,4.1,4.3,3.4,3.6c-0.4,0.6,0,1.5,0.4,1.8c-0.2,0-0.4-0.1-0.6-0.2c0,0.8,0.4,1.1,1,1.3c-0.2,0-0.4,0-0.6,0
	C3.9,7.1,4.3,7.4,5,7.5C4.5,7.9,3.7,8.1,3,8c0.6,0.4,1.2,0.7,2.1,0.6C7.3,8.6,8.8,7,8.9,4.7z"/>
</svg>
