<?xml version="1.0" encoding="utf-8"?>
<!-- Generator: Adobe Illustrator 26.5.0, SVG Export Plug-In . SVG Version: 6.00 Build 0)  -->
<svg version="1.1" id="圖層_1" xmlns="http://www.w3.org/2000/svg" xmlns:xlink="http://www.w3.org/1999/xlink" x="0px" y="0px"
	 viewBox="0 0 48 48" style="enable-background:new 0 0 48 48;" xml:space="preserve">
<path d="M3.8,6L6,3.8L44.2,42L42,44.2L3.8,6z"/>
<g>
	<path d="M42.6,35V14.8c0-0.5-0.2-0.9-0.6-1.4s-0.8-0.7-1.3-0.7h-4.7v15.6L42.6,35z"/>
	<path d="M15.8,8.2h14.7v14.7l2.3,2.3c0.4-0.4,0.5-0.8,0.5-1.2V7.3c0-0.5-0.2-0.9-0.6-1.3c-0.4-0.4-0.8-0.6-1.3-0.6H13L15.8,8.2z"/>
	<path d="M30.8,28.7h-18v4.6c0,0.4,0.2,0.9,0.6,1.3c0.4,0.4,0.8,0.7,1.3,0.7h20.5l7.4,7.4v-2.1L30.8,28.7z"/>
	<path d="M28,25.9l-2.8-2.8H11.7l-3.5,3.5V8.2h2.1L7.5,5.4H7.2C6.8,5.4,6.4,5.6,6,6C5.6,6.5,5.4,6.9,5.4,7.3v26l7.5-7.5H28z"/>
</g>
</svg>
