<?xml version="1.0" encoding="utf-8"?>
<!-- Generator: Adobe Illustrator 26.5.0, SVG Export Plug-In . SVG Version: 6.00 Build 0)  -->
<svg version="1.1" id="圖層_1" xmlns="http://www.w3.org/2000/svg" xmlns:xlink="http://www.w3.org/1999/xlink" x="0px" y="0px"
	 viewBox="0 0 48 48" style="enable-background:new 0 0 48 48;" xml:space="preserve">
<g id="圖層_3">
	<path d="M3.8,6L6,3.8L44.2,42L42,44.2L3.8,6z"/>
</g>
<g id="圖層_4">
	<g>
		<path d="M19.6,12h4.7c-0.4,1.1-0.9,2.2-1.5,3.2l2.9,2.9c1.1-2,1.9-4,2.6-6.1H34V8H20V4h-4v4h-0.4L19.6,12z"/>
		<polygon points="10.1,8 2,8 2,12 14.1,12 		"/>
		<path d="M23.7,21.6l-2.8-2.8C20,19.9,19.1,21,18,22.2c-0.9-1-1.6-2-2.3-3s-1.3-2-1.9-3.1H9.5c0.7,1.6,1.6,3.1,2.6,4.6
			s2.1,3,3.4,4.4L5.2,35.2L8,38l10-10l6.3,6.1l1.5-4l-4.9-5C22,24,22.9,22.8,23.7,21.6z"/>
	</g>
	<g>
		<polygon points="34.1,26.4 34.8,24.5 34.9,24.5 36.5,28.8 42.8,35.1 36.9,20 32.8,20 31.4,23.7 		"/>
		<polygon points="36.3,34.2 31.3,34.2 32.6,30.5 29.9,27.7 23.8,44 27.8,44 30.2,37.7 39.8,37.7 41.8,44 46.1,44 		"/>
	</g>
</g>
</svg>
