<?xml version="1.0" encoding="utf-8"?>
<!-- Generator: Adobe Illustrator 26.5.0, SVG Export Plug-In . SVG Version: 6.00 Build 0)  -->
<svg version="1.1" id="圖層_1" xmlns="http://www.w3.org/2000/svg" xmlns:xlink="http://www.w3.org/1999/xlink" x="0px" y="0px"
	 viewBox="0 0 12 12" style="enable-background:new 0 0 12 12;" xml:space="preserve">
<path d="M2.5,1.5h7c0.6,0,1,0.4,1,1v7c0,0.6-0.4,1-1,1h-7c-0.6,0-1-0.4-1-1v-7C1.5,1.9,1.9,1.5,2.5,1.5 M9,2.5H7.8
	C6.8,2.5,6,3.3,6,4.2v1.2H5V7h1v3.5h1.5V7H9V5.5H7.5v-1C7.5,4.2,7.7,4,8,4h1V2.5z"/>
</svg>
