<?xml version="1.0" encoding="utf-8"?>
<!-- Generator: Adobe Illustrator 26.5.0, SVG Export Plug-In . SVG Version: 6.00 Build 0)  -->
<svg version="1.1" id="圖層_1" xmlns="http://www.w3.org/2000/svg" xmlns:xlink="http://www.w3.org/1999/xlink" x="0px" y="0px"
	 viewBox="0 0 48 48" style="enable-background:new 0 0 48 48;" xml:space="preserve">
<path d="M5.4,33.3v-26C5.4,6.9,5.6,6.5,6,6c0.4-0.4,0.8-0.7,1.3-0.7h24.2c0.5,0,0.9,0.2,1.3,0.6c0.4,0.4,0.6,0.9,0.6,1.3v16.6
	c0,0.4-0.2,0.9-0.6,1.3s-0.8,0.7-1.3,0.7H12.8L5.4,33.3z M14.7,35.2c-0.4,0-0.9-0.2-1.3-0.7c-0.4-0.4-0.6-0.9-0.6-1.3v-4.6h23.3
	V12.8h4.7c0.4,0,0.9,0.2,1.3,0.7c0.4,0.4,0.6,0.9,0.6,1.4v27.8l-7.4-7.4H14.7z M30.5,8.2H8.2v18.4l3.5-3.5h18.9V8.2z M8.2,8.2v18.4
	V8.2z"/>
</svg>
